<?xml version="1.0" encoding="UTF-8" standalone="no"?>
<!DOCTYPE svg PUBLIC "-//W3C//DTD SVG 1.1//EN" "http://www.w3.org/Graphics/SVG/1.1/DTD/svg11.dtd">
<svg width="100%" height="100%" viewBox="0 0 100 100" version="1.1" xmlns="http://www.w3.org/2000/svg" xmlns:xlink="http://www.w3.org/1999/xlink" xml:space="preserve" xmlns:serif="http://www.serif.com/" style="fill-rule:evenodd;clip-rule:evenodd;stroke-linejoin:round;stroke-miterlimit:2;">
    <g transform="matrix(0.684377,0,0,0.684377,71.4719,5.34689)">
        <path d="M0,51.372L-13.21,51.372C-13.21,38.22 -23.91,27.52 -37.062,27.52C-50.213,27.52 -60.913,38.22 -60.913,51.372L-74.123,51.372C-74.123,30.936 -57.497,14.31 -37.062,14.31C-27.985,14.31 -19.66,17.59 -13.21,23.026L-13.21,0L0,0L0,51.372Z" style="fill:rgb(237,28,36);fill-rule:nonzero;"/>
    </g>
    <g transform="matrix(0.684377,0,0,0.684377,22.5703,37.9147)">
        <path d="M0,83.412L-2.669,83.412L-2.669,38.239C-2.669,18.001 13.266,0.971 33.499,0.493C54.342,0 71.454,16.811 71.454,37.544L58.244,37.544C58.244,24.529 47.766,13.915 34.802,13.696C21.46,13.47 10.541,24.742 10.541,38.086L10.541,72.871C10.541,78.693 5.822,83.412 0,83.412" style="fill:rgb(35,169,74);fill-rule:nonzero;"/>
    </g>
    <g transform="matrix(0.684377,0,0,0.684377,62.4311,83.197)">
        <path d="M0,-28.622C0,-15.47 -10.7,-4.77 -23.851,-4.77C-29.112,-4.77 -33.392,-9.05 -33.392,-14.311C-33.392,-19.572 -29.112,-23.852 -23.851,-23.852L-23.851,-37.062C-36.396,-37.062 -46.602,-26.856 -46.602,-14.311C-46.602,-1.766 -36.396,8.44 -23.851,8.44C-3.416,8.44 13.21,-8.186 13.21,-28.622L0,-28.622Z" style="fill:rgb(25,164,211);fill-rule:nonzero;"/>
    </g>
    <g transform="matrix(-0.413009,-0.545707,-0.545707,0.413009,72.9062,33.3607)">
        <path d="M-8.78,-17.656C-3.039,-13.582 -1.688,-5.626 -5.763,0.114L-8.78,4.366C-14.521,0.292 -15.872,-7.664 -11.798,-13.405L-8.78,-17.656Z" style="fill:rgb(234,172,32);fill-rule:nonzero;"/>
    </g>
    <g transform="matrix(-0.413009,-0.545707,-0.545707,0.413009,72.9062,21.0419)">
        <path d="M-8.78,-17.656C-3.039,-13.582 -1.688,-5.626 -5.763,0.114L-8.78,4.366C-14.521,0.292 -15.872,-7.664 -11.798,-13.405L-8.78,-17.656Z" style="fill:rgb(234,172,32);fill-rule:nonzero;"/>
    </g>
    <g transform="matrix(-0.413009,-0.545707,-0.545707,0.413009,72.9062,8.03873)">
        <path d="M-8.78,-17.656C-3.039,-13.582 -1.688,-5.626 -5.763,0.114L-8.78,4.366C-14.521,0.292 -15.872,-7.664 -11.798,-13.405L-8.78,-17.656Z" style="fill:rgb(234,172,32);fill-rule:nonzero;"/>
    </g>
</svg>
